<?xml version="1.0" encoding="utf-8"?>
<!-- Generator: Adobe Illustrator 23.0.5, SVG Export Plug-In . SVG Version: 6.00 Build 0)  -->
<svg version="1.1" id="Capa_1" xmlns="http://www.w3.org/2000/svg" xmlns:xlink="http://www.w3.org/1999/xlink" x="0px" y="0px"
	 viewBox="0 0 679.47 409.48" style="enable-background:new 0 0 679.47 409.48;" xml:space="preserve">
<style type="text/css">
	.st0{fill:#09893E;}
	.st1{fill:#FDD50D;}
	.st2{fill:#A8191A;}
	.st3{fill:#EC690D;}
	.st4{fill:#E14278;}
	.st5{fill:#A8599E;}
	.st6{fill:#0A8A3F;}
</style>
<path class="st0" d="M551.23,34.45c29.52,0,59.04,0,88.56,0.01c3.11,0,2.85-0.47,2.85,2.77c0.01,19.84,0.01,39.68,0,59.52
	c0,3.29,0.29,2.87-2.76,2.85c-1.65-0.01-3.66,0.67-4.86-0.35c-1.11-0.94-0.87-2.98-1.25-4.52c-1.55-6.37-3.4-12.65-6.07-18.66
	c-0.49-1.09-1.01-2.18-1.52-3.26c-6.09-12.83-16.02-20.82-29.91-24.01c-8.46-1.94-17.01-2.95-25.65-3.27
	c-5.83-0.21-11.68-0.42-17.49,0.34c-1.35,0.18-2.7,0.35-4.02,0.66c-5.06,1.2-7.49,3.83-8.29,9c-0.3,1.89-0.46,3.8-0.46,5.73
	c0.02,23.84,0.01,47.68,0.01,71.52c0,0.4,0.03,0.8,0,1.2c-0.11,1.08,0.43,1.36,1.42,1.36c7.15,0.05,14.22-0.5,21.08-2.67
	c6.74-2.14,12.02-6.13,15.69-12.26c4.11-6.86,6.76-14.28,8.75-21.96c0.76-2.94,1.36-5.91,2-8.88c0.42-1.91,0.4-1.93,2.26-1.94
	c1.6-0.02,3.21,0.08,4.8-0.03c1.33-0.09,1.69,0.49,1.57,1.67c-0.05,0.47-0.01,0.96-0.01,1.44c0,34.32,0,68.64,0,102.96
	c0,0.4,0.01,0.8,0,1.2c-0.04,1.73-0.04,1.75-1.67,1.78c-1.68,0.03-3.36-0.06-5.04,0.03c-1.1,0.06-1.54-0.29-1.69-1.42
	c-0.55-4.12-1.25-8.21-2.22-12.26c-1.25-5.22-2.93-10.27-5.11-15.19c-4.81-10.87-13.14-17.22-24.67-19.59
	c-5.03-1.03-10.1-1.6-15.24-1.58c-1.9,0.01-1.93,0.01-1.93,2c-0.01,13.04,0,26.08,0,39.12c0,11.12,0,22.24,0,33.36
	c0,2.97,0.24,5.91,0.88,8.81c1.3,5.94,4.64,10.03,10.6,11.87c4.23,1.3,8.55,2.05,12.94,2.34c3.11,0.2,6.23,0.23,9.35,0.32
	c1.66,0.05,1.67,0.03,1.7,1.75c0.02,1.6,0.03,3.2,0,4.8c-0.03,1.64-0.05,1.64-1.79,1.69c-0.4,0.01-0.8,0-1.2,0
	c-36.72,0-73.44,0-110.15-0.01c-3.46,0-2.98,0.4-3.02-3.1c-0.01-1.2,0.07-2.41-0.02-3.6c-0.11-1.29,0.46-1.67,1.65-1.69
	c4.17-0.09,8.29-0.53,12.35-1.52c8.59-2.09,13.26-7.35,14.4-16.13c0.26-1.99,0.37-3.98,0.37-5.98c0-51.36,0-102.72,0-154.07
	c0-3.54-0.27-7.03-1.35-10.42c-1.75-5.5-5.3-9.19-10.86-10.9c-4.38-1.35-8.89-1.95-13.44-2.28c-3.09-0.22-3.09-0.2-3.1-3.24
	c0-0.96,0-1.92,0-2.88c0-2.67-0.13-2.38,2.52-2.4c0.4,0,0.8,0,1.2,0C492.67,34.45,521.95,34.45,551.23,34.45z"/>
<path class="st1" d="M342.93,268.68c-11.45,0.03-20.16-8.32-20.57-19.28c-0.37-9.97,1.12-19.74,3.15-29.45
	c0.62-2.97,1.37-5.91,2.38-8.77c0.21-0.6,0.46-1.2,0.75-1.76c0.81-1.58,1.26-1.74,2.81-0.87c2.31,1.3,4.28,3.07,6.23,4.84
	c7.54,6.83,14.54,14.14,20.38,22.52c2.11,3.03,3.79,6.23,4.3,10.01c1.36,9.95-5.14,19.71-14.91,22.18
	C345.81,268.51,344.16,268.74,342.93,268.68z"/>
<path class="st2" d="M283.45,195.63c1.28,0.06,2.4,0.03,3.5,0.2c1.62,0.24,1.95,0.7,1.59,2.26c-0.36,1.55-0.79,3.1-1.36,4.58
	c-3.74,9.72-8.43,18.96-14.24,27.62c-1.11,1.66-2.31,3.27-3.64,4.76c-5.63,6.28-12.7,8.23-20.65,5.92
	c-8.09-2.35-12.91-8.03-14.2-16.4c-1.4-9.06,3.34-17.47,11.78-21.17c5.74-2.52,11.8-3.95,17.91-5.16c4.07-0.81,8.18-1.41,12.29-1.98
	C278.81,195.91,281.22,195.82,283.45,195.63z"/>
<path class="st3" d="M315.68,242.78c0.01,2.65-0.06,5.28-0.82,7.84c-2.62,8.91-11.04,14.84-20.32,14.32
	c-9.47-0.53-17.14-7.32-18.8-16.56c-0.88-4.86-0.01-9.36,2.47-13.58c3.21-5.47,7.24-10.33,11.45-15.04c4-4.47,8.18-8.76,12.78-12.62
	c0.8-0.67,1.61-1.31,2.47-1.9c2.54-1.75,3.01-1.61,4.17,1.16c0.25,0.59,0.51,1.17,0.7,1.78
	C313.24,219.46,315.13,231.01,315.68,242.78z"/>
<path class="st4" d="M288.7,155.89c-10.72-0.38-21.32-1.53-31.69-4.4c-7.81-2.17-12.97-7.01-15-14.92
	c-2.82-10.97,4.66-22.48,15.81-24.44c7.14-1.25,13.29,0.7,18.29,5.95c4.87,5.12,8.68,11.04,12.32,17.06
	c2.85,4.72,5.54,9.53,7.62,14.64c0.48,1.18,0.94,2.38,1.24,3.62c0.35,1.41,0.04,1.84-1.43,2.18c-1.73,0.41-3.5,0.26-5.25,0.31
	C289.98,155.9,289.34,155.89,288.7,155.89z"/>
<path class="st5" d="M244.8,195.27c-10.71-0.07-19.26-7.85-20.2-18.38c-0.86-9.65,5.36-18.98,15.73-21.42
	c3.58-0.84,7.13-0.38,10.64,0.6c9.68,2.69,18.7,6.92,27.47,11.72c2.45,1.34,4.87,2.76,7.05,4.52c2.13,1.72,2.16,2.33,0.07,4.03
	c-4.23,3.45-8.96,6.14-13.73,8.73c-6.46,3.51-13.07,6.71-20.1,8.94C249.36,194.77,246.97,195.41,244.8,195.27z"/>
<path class="st0" d="M250.11,367.35c0.61-0.74,0.82-1.67,1.16-2.53c5.86-14.6,11.68-29.22,17.55-43.82c1.36-3.38,0.45-2.8,4.22-2.86
	c0.4-0.01,0.79,0.04,1.15,0.05c0.43,0.63,0.06,1.11-0.14,1.61c-7.63,19.14-15.26,38.28-22.9,57.42c-0.15,0.37-0.26,0.77-0.47,1.1
	c-0.43,0.67-1.09,0.64-1.49-0.09c-0.31-0.55-0.5-1.17-0.73-1.77c-6.05-15.21-12.1-30.43-18.14-45.64c-0.26-0.66-0.53-1.33-0.84-2.09
	c-0.9,0.44-0.93,1.31-1.2,2c-6.09,15.29-12.15,30.58-18.26,45.86c-0.32,0.81-0.25,2.2-1.52,2.15c-1.2-0.04-1.15-1.38-1.48-2.21
	c-7.45-18.61-14.87-37.23-22.29-55.86c-0.29-0.72-0.74-1.42-0.67-2.22c0.19-0.12,0.31-0.26,0.43-0.27c3.95-0.2,3.95-0.19,5.42,3.51
	c5.77,14.47,11.54,28.93,17.33,43.39c0.32,0.79,0.48,1.67,1.14,2.32c0.67-0.66,0.84-1.55,1.17-2.35
	c5.97-14.73,11.92-29.47,17.87-44.2c0.15-0.37,0.27-0.76,0.46-1.1c0.36-0.65,0.33-1.68,1.47-1.59c0.96,0.08,0.99,0.96,1.24,1.57
	c4.85,12,9.67,24,14.5,36.01c1.43,3.56,2.87,7.11,4.3,10.67C249.55,366.77,249.68,367.15,250.11,367.35z"/>
<path class="st0" d="M571.08,353.02c-7.62-9.31-15.04-18.38-22.57-27.59c-0.67,0.87-0.38,1.68-0.39,2.4
	c-0.02,15.84,0,31.67-0.02,47.51c0,3.17,0.49,2.81-2.77,2.82c-1.75,0.01-1.78-0.03-1.78-1.88c-0.01-18.72-0.01-37.43,0-56.15
	c0-1.96,0.03-1.87,1.95-2.02c1.83-0.14,3.06,0.44,4.26,1.92c6.27,7.79,12.66,15.47,19.02,23.19c0.71,0.86,1.43,1.7,2.21,2.62
	c0.69-0.29,0.99-0.88,1.37-1.34c6.74-8.23,13.55-16.4,20.15-24.74c1.59-2.01,3.43-1.55,5.35-1.58c0.49-0.01,0.66,0.4,0.69,0.82
	c0.04,0.56,0.03,1.12,0.03,1.68c0,18.32,0.01,36.63,0,54.95c0,2.83,0.32,2.52-2.59,2.54c-2.17,0.02-2.03,0.12-2.03-2.12
	c0-16,0-31.99,0-47.99c0-0.77,0-1.55,0-2.32c-0.15-0.08-0.3-0.15-0.45-0.23C586.11,334.56,578.73,343.63,571.08,353.02z"/>
<path class="st0" d="M281.57,348.05c0-9.04,0-18.07,0-27.11c0-0.56,0.02-1.12,0-1.68c-0.03-0.8,0.31-1.19,1.13-1.14
	c0.32,0.02,0.64,0,0.96,0c9.52,0,19.03-0.01,28.55,0.02c0.66,0,1.62-0.4,1.93,0.44c0.35,0.96,0.31,2.08,0.01,3.06
	c-0.19,0.6-0.99,0.35-1.52,0.35c-3.92,0.02-7.84,0.01-11.75,0.01c-4.32,0-8.64,0.04-12.95-0.02c-1.24-0.02-1.67,0.35-1.67,1.62
	c0.05,6.96,0.06,13.91-0.01,20.87c-0.01,1.35,0.54,1.56,1.69,1.56c7.6-0.03,15.19-0.02,22.79-0.02c0.56,0,1.12,0.03,1.68,0
	c0.94-0.05,1.29,0.41,1.24,1.3c-0.03,0.48-0.03,0.96,0,1.44c0.04,0.78-0.26,1.21-1.09,1.21c-0.56,0-1.12,0.01-1.68,0.01
	c-7.44,0-14.87,0-22.31,0c-2.39,0-2.29-0.12-2.29,2.15c0.01,6.72,0,13.43,0,20.15c0,2.2-0.09,2.02,2.13,2.02c8.08,0,16.15,0,24.23,0
	c2.46,0,2.83,0.49,2.43,2.97c-0.09,0.58-0.34,0.86-0.9,0.88c-0.56,0.02-1.12,0.02-1.68,0.02c-9.44,0-18.87,0-28.31,0
	c-0.4,0-0.8-0.03-1.2,0c-0.98,0.08-1.53-0.23-1.42-1.33c0.05-0.55,0.01-1.12,0.01-1.68C281.57,366.13,281.57,357.09,281.57,348.05z"
	/>
<path class="st0" d="M640.62,326.16c-1.5-0.73-2.69-1.33-3.9-1.91c-3.74-1.8-7.61-2.89-11.82-2.38c-6.34,0.77-10.79,6.02-10.3,12.24
	c0.24,3.06,1.68,5.45,4.17,7.22c1.9,1.35,4.02,2.29,6.18,3.15c2.97,1.18,5.97,2.28,8.85,3.67c7.12,3.43,10.14,8.93,9.17,16.73
	c-0.81,6.46-6.41,12.29-13.12,13.65c-6.87,1.4-12.94-0.7-18.68-4.24c-0.51-0.31-0.86-0.68-0.85-1.33c0.02-1.41,0.01-2.81,0.01-4.57
	c1.1,0.71,1.89,1.22,2.67,1.72c3.18,2.05,6.51,3.8,10.3,4.37c4.57,0.69,8.57-0.53,11.76-3.96c4.72-5.08,3.88-13.01-1.78-17.04
	c-1.97-1.4-4.16-2.38-6.39-3.27c-3.04-1.21-6.08-2.44-9.06-3.8c-10.63-4.86-10.31-17.67-3.84-23.89c4.88-4.69,10.69-5.76,17.09-4.78
	c2.94,0.45,5.71,1.49,8.38,2.79c0.8,0.39,1.23,0.88,1.17,1.84C640.56,323.54,640.62,324.72,640.62,326.16z"/>
<path class="st0" d="M41.99,348.17c0-9.12,0-18.23,0-27.35c0-0.56,0.02-1.12,0.01-1.68c-0.01-0.69,0.3-1.03,1.01-1.01
	c0.24,0.01,0.48,0,0.72,0c9.12,0,18.23-0.01,27.35,0.02c0.57,0,1.44-0.34,1.65,0.5c0.24,0.99,0.36,2.11-0.09,3.04
	c-0.3,0.62-1.17,0.31-1.78,0.31C64.53,322.01,58.21,322,51.9,322c-1.28,0-2.56,0.06-3.84-0.02c-1.19-0.07-1.51,0.46-1.5,1.56
	c0.04,4.08,0.01,8.16,0.01,12.24c0,2.24,0.01,4.48,0,6.72c-0.02,2.79,0.17,2.38,2.32,2.38c6.24,0.01,12.48,0,18.71,0
	c0.56,0,1.12,0.01,1.68,0c0.67-0.01,1.05,0.25,1.03,0.98c-0.02,0.64-0.01,1.28,0,1.92c0.01,0.72-0.39,0.97-1.06,0.96
	c-0.88-0.01-1.76,0-2.64,0c-5.76,0-11.52-0.01-17.27,0.01c-2.96,0.01-2.76-0.43-2.76,2.88c-0.01,8,0.01,15.99-0.01,23.99
	c0,2.82,0.33,2.51-2.6,2.53c-2.18,0.02-1.99,0.06-1.99-2.17C41.99,366.72,41.99,357.44,41.99,348.17z"/>
<path class="st0" d="M415.04,318.13c4.56,0,9.12-0.02,13.68,0.01c1.65,0.01,1.65,0.05,1.63,2.07c-0.02,1.74-0.02,1.78-1.66,1.79
	c-7.28,0.02-14.56,0.01-21.84,0.01c-0.64,0-1.28,0-1.92,0.01c-0.58,0.01-0.86,0.34-0.87,0.91c-0.01,0.4-0.01,0.8-0.01,1.2
	c0,6.24-0.01,12.48,0,18.72c0,2.02,0.02,2.03,2.15,2.04c6.56,0.01,13.12,0,19.68,0.01c0.6,0,1.47-0.31,1.74,0.39
	c0.36,0.96,0.28,2.04,0.01,3.05c-0.09,0.34-0.46,0.39-0.79,0.4c-0.56,0.01-1.12,0.01-1.68,0.01c-6,0-12-0.02-18,0.01
	c-3.57,0.01-3.1-0.43-3.11,2.99c-0.02,7.92-0.01,15.84-0.01,23.75c0,0.56-0.02,1.12,0,1.68c0.02,0.71-0.32,0.92-1,0.99
	c-3.41,0.38-3.57,0.25-3.57-3.26c0-17.84,0-35.67,0-53.51c0-0.48-0.01-0.96,0-1.44c0.05-1.8,0.05-1.83,1.89-1.83
	C405.93,318.12,410.48,318.13,415.04,318.13z"/>
<path class="st6" d="M80.53,348.05c0-9.27,0-18.55,0-27.82c0-2.08,0.02-2.08,2.09-2.1c0.48,0,0.96,0.02,1.44,0
	c0.78-0.04,1.21,0.24,1.18,1.09c-0.03,0.64,0,1.28,0,1.92c0,16.63,0,33.26,0,49.88c0,0.48-0.01,0.96,0,1.44
	c0.03,1.79,0.04,1.82,1.86,1.82c8.55,0.01,17.11,0,25.66,0.02c0.69,0,1.65-0.35,2,0.36c0.46,0.92,0.22,2.04,0.1,3.06
	c-0.04,0.3-0.45,0.42-0.78,0.43c-0.56,0.01-1.12,0.02-1.68,0.02c-9.75,0-19.51,0-29.26,0c-0.48,0-0.96-0.02-1.44,0
	c-0.76,0.02-1.22-0.25-1.18-1.1c0.03-0.56,0-1.12,0-1.68C80.53,366.28,80.53,357.16,80.53,348.05z"/>
<g>
	<path class="st0" d="M228.38,76.41c-3.26-14.6-11.63-25.15-25.18-31.61c-8.44-4.03-17.33-6.48-26.51-8.02
		c-10.44-1.75-20.97-2.32-31.54-2.32c-14.16-0.01-28.32,0-42.47,0c-19.2,0-38.39,0-57.59,0c-0.56,0-1.12,0.04-1.68-0.01
		c-1.09-0.1-1.37,0.45-1.34,1.43c0.05,1.76,0.1,3.52-0.02,5.28c-0.08,1.29,0.5,1.67,1.64,1.78c1.43,0.14,2.86,0.33,4.27,0.58
		c3.94,0.68,7.81,1.61,11.5,3.23c3.76,1.65,6.22,4.39,7.4,8.3c0.25,0.84,0.48,1.69,0.68,2.55c1.25,5.42,1.38,10.93,1.38,16.45
		c-0.01,46.31,0,92.63-0.01,138.94c0,1.84,0.04,3.68-0.06,5.52c-0.25,4.55-0.68,9.07-2.12,13.45c-1.44,4.39-4.26,7.42-8.5,9.17
		c-2.22,0.92-4.52,1.6-6.87,2.06c-2.43,0.48-4.88,0.86-7.35,1.04c-1.9,0.13-1.91,0.18-1.93,2.15c-0.01,1.6,0.06,3.2-0.02,4.8
		c-0.06,1.18,0.43,1.6,1.54,1.49c0.48-0.05,0.96-0.01,1.44-0.01c33.92,0,67.83,0,101.75,0c0.56,0,1.12-0.02,1.68,0
		c0.82,0.03,1.14-0.35,1.13-1.15c-0.02-1.92-0.05-3.84,0.01-5.76c0.04-1.05-0.43-1.43-1.4-1.45c-0.88-0.02-1.76-0.09-2.63-0.15
		c-3.67-0.28-7.28-0.92-10.84-1.91c-6.66-1.85-10.63-6.12-12.1-12.86c-1.03-4.72-1.42-9.47-1.42-14.28c0.01-19.28,0-38.56,0-57.83
		c0-0.48,0.02-0.96,0-1.44c-0.03-0.68,0.24-1.05,0.96-1.04c0.48,0.01,0.96-0.01,1.44-0.02c8.96-0.15,17.92-0.18,26.87-0.48
		c8.23-0.28,16.46-0.62,24.57-2.29c10.89-2.24,21.2-5.93,30.61-11.99c11.64-7.5,19.06-18.02,22.64-31.3
		C231.21,97.95,230.79,87.16,228.38,76.41z M174.06,109.05c-0.57,4.37-1.54,8.64-3.04,12.79c-3.79,10.47-10.97,16.94-22.04,19.09
		c-8.67,1.68-17.4,2.41-26.2,2.51c-1.53,0.02-1.54-0.02-1.54-2.12c0-14.23,0-28.46,0-42.69c0-13.67,0-27.34,0-41.01
		c0-1.6,0.04-3.19,0.49-4.75c0.75-2.65,2.36-4.48,4.93-5.48c1.65-0.64,3.36-1.05,5.11-1.23c7.28-0.75,14.52-0.74,21.58,1.57
		c6.89,2.25,11.92,6.59,15.07,13.16c2.97,6.19,4.71,12.71,5.61,19.48C175.3,89.92,175.32,99.49,174.06,109.05z"/>
</g>
<g>
	<path class="st0" d="M460.55,215.36c-1.81-1-3.47-2.26-5.45-3.1c-1.08,1.55-2.09,3.08-3.18,4.55c-2.94,3.97-6.83,6.41-11.7,7.31
		c-3.6,0.67-7.16,0.51-10.69-0.41c-5.33-1.38-9.76-4.32-13.77-7.96c-6.54-5.94-12.06-12.79-17.49-19.72
		c-0.7-0.9-0.54-1.48,0.07-2.29c2.06-2.76,4.08-5.54,6.06-8.35c9.39-13.33,18.97-26.53,27.06-40.74c2.37-4.17,5.12-8.1,7.89-12.03
		c2.52-3.57,5.85-5.82,9.98-7.03c3-0.88,6.04-1.53,9.13-1.97c1.75-0.25,1.76-0.25,1.79-2.07c0.02-1.52-0.03-3.04,0.01-4.56
		c0.03-0.97-0.24-1.54-1.34-1.43c-0.48,0.05-0.96,0.01-1.44,0.01c-20.64,0-41.27,0-61.91,0c-0.48,0-0.96,0.04-1.44,0
		c-0.99-0.09-1.24,0.44-1.22,1.3c0.03,1.52-0.01,3.04,0.01,4.56c0.02,1.97,0.03,1.95,1.9,2.22c4.43,0.64,8.82,1.41,13.13,2.67
		c3.69,1.08,5.5,3.58,6.1,7.21c0.56,3.36,0.37,6.69-0.27,10.01c-1.07,5.57-3.38,10.64-6.22,15.49c-4.98,8.5-10.69,16.5-16.66,24.32
		c-0.27,0.35-0.46,0.89-1.23,0.7c-16.06-22.67-32.19-45.43-48.32-68.2c0.75-0.8,1.66-0.92,2.45-1.22c6.6-2.47,13.01-5.34,19.11-8.87
		c6.53-3.78,12.76-8.01,17.76-13.74c9.01-10.31,11.53-22.18,7.19-35.1c-3.46-10.29-10.92-17.31-20.53-22.07
		c-6.16-3.05-12.77-4.54-19.57-5.28c-7.58-0.82-15.17-0.75-22.75-0.03c-7.28,0.69-14.4,2.12-21.17,4.92
		c-14.24,5.89-24.28,15.91-28.82,30.77c-3.76,12.29-2.6,24.51,2.04,36.41c3.43,8.81,7.86,17.16,12.87,25.15
		c21.88,34.91,45.27,68.78,70.2,101.59c6.52,8.58,14.49,15.53,23.57,21.25c6.67,4.2,13.94,6.79,21.81,7.38
		c12.6,0.94,23.86-2.59,33.72-10.51c9.85-7.91,16.31-18.31,21.63-29.54c0.03-0.07,0.07-0.14,0.11-0.21
		C461.27,216.16,461.16,215.7,460.55,215.36z M333.76,104.94c-5.96-8.22-11.89-16.46-16.84-25.34c-2.86-5.13-5.02-10.52-5.84-16.38
		c-0.51-3.66-0.51-7.34,0.3-10.97c1.66-7.4,7.54-12.26,15.26-12.53c7.87-0.27,14.42,2.58,19.35,8.72
		c5.34,6.66,8.62,14.34,10.45,22.64c0.62,2.81,0.97,5.67,0.94,8.57c-0.12,10.15-4.45,17.78-13.54,22.56
		c-2.48,1.3-5.05,2.37-7.67,3.37C335.12,105.99,334.49,105.94,333.76,104.94z"/>
</g>
<g>
	<path class="st0" d="M175.03,327.77c-9.16-9.75-20.52-12.45-33.09-9.07c-11.04,2.96-18.57,10.35-21.49,21.49
		c-3,11.45-0.28,21.72,8.4,30.04c7.62,7.3,16.81,9.61,27.16,8.41c12.78-1.48,26.97-13.02,26.9-30.14
		C183.02,340.49,180.42,333.51,175.03,327.77z M151.46,374.67c-15.25,0.07-26.99-11.43-27-26.45
		c-0.01-14.98,11.52-26.42,26.69-26.47c15.13-0.06,26.71,11.39,26.73,26.41C177.91,363.03,166.37,374.6,151.46,374.67z"/>
</g>
<g>
	<path class="st0" d="M537.58,376.54c-4.33-6.62-8.66-13.25-13.01-19.86c-1.98-3.01-4.06-5.93-7.18-8.38
		c1.32-0.66,2.34-1.11,3.3-1.65c3.39-1.9,6.09-4.48,7.13-8.34c2.11-7.78-0.61-15.43-9.15-18.61c-3.11-1.15-6.37-1.53-9.66-1.57
		c-4.48-0.04-8.96-0.01-13.44-0.01c-2.45,0-2.34-0.21-2.33,2.34c0,0.08,0,0.16,0,0.24c0,18.32,0,36.63,0,54.95
		c0,2.7-0.4,2.5,2.62,2.5c2.04,0,2.05-0.02,2.05-2.14c0.01-6.64,0-13.28,0-19.92c0-1.76,0.03-3.52-0.01-5.28
		c-0.02-0.95,0.19-1.51,1.32-1.47c2.88,0.08,5.76,0.04,8.63,0.13c4.28,0.13,7.61,2.01,10.14,5.49c2.07,2.85,4.04,5.76,5.93,8.72
		c2.74,4.32,5.48,8.64,8.24,12.95c0.41,0.64,0.66,1.52,1.68,1.5c1.46-0.02,2.92-0.03,4.67-0.05
		C538.07,377.34,537.84,376.93,537.58,376.54z M510.77,345.39c-3.83,0.1-7.66,0.05-11.49,0.13c-1.05,0.02-1.37-0.36-1.36-1.38
		c0.04-3.51,0.02-7.02,0.02-10.54c0-3.35,0.03-6.7-0.02-10.06c-0.01-1.09,0.28-1.59,1.48-1.55c4.14,0.15,8.3-0.21,12.43,0.34
		c1.59,0.21,3.14,0.57,4.62,1.17c4.59,1.85,7.05,5.5,7.02,10.38c-0.02,4.91-2.48,8.47-7.13,10.29
		C514.55,344.87,512.68,345.34,510.77,345.39z"/>
</g>
<g>
	<path class="st0" d="M368.93,376.47c-4.36-6.69-8.73-13.38-13.13-20.05c-1.67-2.54-3.44-5-5.72-7.06
		c-0.37-0.33-1.07-0.44-0.97-1.25c1.71-0.8,3.45-1.59,4.99-2.74c2.58-1.92,4.49-4.33,5.25-7.5c1.94-8.06-1.27-15.27-9.48-18.23
		c-1.58-0.57-3.21-0.95-4.89-1.14c-6.3-0.73-12.62-0.18-18.92-0.39c-1.56-0.05-1.4,0.88-1.4,1.86c0,18.78,0,37.57,0.01,56.35
		c0,1.82,0.03,1.82,1.82,1.85c0.24,0,0.48,0,0.72,0c2.02-0.02,2.03-0.02,2.03-2.13c0.01-7.91,0-15.83,0-23.74
		c0-0.56,0.02-1.12,0-1.68c-0.04-0.92,0.38-1.28,1.29-1.26c2.88,0.06,5.75,0.03,8.63,0.11c4.38,0.12,7.76,2.06,10.32,5.62
		c1.73,2.4,3.43,4.81,5.02,7.31c3.04,4.79,6.08,9.58,9.13,14.36c0.41,0.65,0.7,1.45,1.73,1.42c1.41-0.05,2.82-0.01,4.21-0.01
		C369.69,377.3,369.22,376.92,368.93,376.47z M342.21,345.38c-3.83,0.11-7.67,0.05-11.5,0.13c-1.18,0.03-1.5-0.44-1.48-1.55
		c0.05-3.43,0.02-6.87,0.02-10.31c0-3.28-0.02-6.55,0.01-9.83c0.01-1.76,0.05-1.83,1.67-1.81c4.15,0.05,8.31-0.25,12.45,0.32
		c1.83,0.26,3.6,0.71,5.27,1.51c4.16,2,6.25,5.38,6.24,9.95c-0.01,4.66-2.12,8.11-6.43,10.07
		C346.49,344.77,344.38,345.32,342.21,345.38z"/>
</g>
<g>
	<path class="st0" d="M484.87,375.78c-6.11-13.35-12.25-26.7-18.38-40.04c-2.53-5.51-5.05-11.03-7.59-16.54
		c-0.67-1.45-1.25-1.73-2.54-1.5c-1.13,0.19-1.18,1.2-1.53,1.95c-8.64,18.78-17.27,37.57-25.89,56.36
		c-0.29,0.63-0.78,1.22-0.65,1.99c0.62,0.28,1.28,0.08,1.9,0.18c1.93,0.3,2.95-0.44,3.74-2.32c2.4-5.66,5.07-11.2,7.57-16.81
		c0.52-1.17,1.15-1.65,2.5-1.64c8.63,0.07,17.26,0.07,25.89,0c1.36-0.01,1.96,0.49,2.48,1.66c2.33,5.25,4.75,10.46,7.14,15.69
		c1.65,3.6,1.65,3.6,5.63,3.39c0.15-0.01,0.29-0.1,0.46-0.16C485.76,377.11,485.19,376.47,484.87,375.78z M444.08,353.51
		c4.26-9.36,8.43-18.52,12.83-28.17c4.39,9.59,8.57,18.73,12.9,28.17C461.09,353.51,452.8,353.51,444.08,353.51z"/>
</g>
</svg>
